<?xml version="1.0" encoding="utf-8"?>
<svg viewBox="-134 -267.1622 768 886.3242" xmlns="http://www.w3.org/2000/svg">
  <path d="M -70 73.114 L -70 555.162 L 570 555.162 L 570 73.114 L 250 -193.51 L -70 73.114 Z M -122.48 33.562 L 229.52 -259.75 C 241.385 -269.633 258.615 -269.633 270.48 -259.75 L 622.48 33.562 C 629.776 39.639 633.997 48.643 634 58.138 L 634 587.162 C 634 604.835 619.673 619.162 602 619.162 L -102 619.162 C -119.673 619.162 -134 604.835 -134 587.162 L -134 58.138 C -133.996 48.643 -129.776 39.639 -122.48 33.562 Z" style="fill: rgb(55, 74, 103);" transform="matrix(1, 0, 0, 1, 0, 5.684341886080802e-14)"/>
  <path fill-rule="evenodd" clip-rule="evenodd" d="M 49.546 112.547 C 49.546 77.221 77.747 49.868 112.729 32.388 C 148.742 14.382 197.309 3.729 250 3.729 C 302.713 3.729 351.258 14.382 387.293 32.388 C 422.275 49.868 450.453 77.221 450.453 112.547 L 450.453 387.454 C 450.453 422.78 422.275 450.133 387.293 467.613 C 351.258 485.619 302.713 496.272 250 496.272 C 197.309 496.272 148.742 485.619 112.729 467.613 C 77.747 450.133 49.546 422.78 49.546 387.454 L 49.546 112.547 Z M 83.91 112.547 C 83.91 97.266 96.761 78.779 128.101 63.11 C 158.41 47.966 201.478 38.093 250 38.093 C 298.521 38.093 341.613 47.966 371.921 63.11 C 403.261 78.779 416.09 97.266 416.09 112.547 C 416.09 127.827 403.261 146.315 371.921 161.984 C 341.613 177.127 298.521 187.001 250 187.001 C 201.478 187.001 158.41 177.127 128.101 161.984 C 96.761 146.315 83.91 127.827 83.91 112.547 Z M 83.91 387.454 C 83.91 402.735 96.761 421.222 128.101 436.892 C 158.41 452.035 201.478 461.908 250 461.908 C 298.521 461.908 341.613 452.035 371.921 436.892 C 403.261 421.222 416.09 402.735 416.09 387.454 L 416.09 312.015 C 407.476 318.91 397.671 324.959 387.293 330.159 C 351.258 348.165 302.713 358.818 250 358.818 C 197.309 358.818 148.742 348.165 112.729 330.159 C 102.351 324.959 92.546 318.91 83.91 312.015 L 83.91 387.454 Z M 416.09 174.561 L 416.09 250.001 C 416.09 265.281 403.261 283.768 371.921 299.438 C 341.613 314.581 298.521 324.455 250 324.455 C 201.478 324.455 158.41 314.581 128.101 299.438 C 96.761 283.768 83.91 265.281 83.91 250.001 L 83.91 174.561 C 92.546 181.457 102.351 187.505 112.729 192.705 C 148.742 210.711 197.309 221.364 250 221.364 C 302.713 221.364 351.258 210.711 387.293 192.705 C 397.671 187.505 407.476 181.457 416.09 174.561 Z" style="fill: rgb(55, 74, 103);" transform="matrix(1, 0, 0, 1, 0, 5.684341886080802e-14)"/>
</svg>
